<?xml version="1.0" encoding="utf-8"?>
<svg height="800px" width="800px" version="1.1" id="Layer_1" viewBox="0 0 503.467 503.467" xmlns="http://www.w3.org/2000/svg">
  <g transform="translate(1 3)">
    <path style="fill: rgb(41, 113, 182);" d="M307.907,226.547c5.973-1.707,12.8-3.413,19.627-3.413c37.547,0,68.267,30.72,68.267,68.267 s-30.72,68.267-68.267,68.267H156.867c-28.16,0-51.2-23.04-51.2-51.2c0-23.04,15.36-42.667,36.693-48.64 c-1.707-5.973-2.56-12.8-2.56-19.627c0-46.933,38.4-85.333,85.333-85.333c29.867,0,56.32,15.36,71.68,38.4 c0,0,7.68,13.653,10.24,31.573L307.907,226.547z"/>
    <path style="fill: rgb(143, 195, 31);" d="M250.733,18.333c14.507,0,25.6,11.093,25.6,25.6s-11.093,25.6-25.6,25.6 c-14.507,0-25.6-11.093-25.6-25.6S236.227,18.333,250.733,18.333z M28.867,171.933c14.507,0,25.6,11.093,25.6,25.6 s-11.093,25.6-25.6,25.6s-25.6-11.093-25.6-25.6S14.36,171.933,28.867,171.933z M472.6,171.933c14.507,0,25.6,11.093,25.6,25.6 s-11.093,25.6-25.6,25.6c-14.507,0-25.6-11.093-25.6-25.6S458.093,171.933,472.6,171.933z M387.267,427.933 c14.507,0,25.6,11.093,25.6,25.6s-11.093,25.6-25.6,25.6c-14.507,0-25.6-11.093-25.6-25.6c0-8.533,4.267-16.213,10.24-20.48 C376.173,429.64,381.293,427.933,387.267,427.933z M129.56,433.053c5.973,4.267,10.24,11.947,10.24,20.48 c0,14.507-11.093,25.6-25.6,25.6s-25.6-11.093-25.6-25.6s11.093-25.6,25.6-25.6C120.173,427.933,125.293,429.64,129.56,433.053z"/>
  </g>
  <path style="fill: rgb(29, 38, 53);" d="M388.267,486.4c-16.213,0-29.867-13.653-29.867-29.867c0-8.533,3.413-15.36,8.533-21.333 l-33.28-40.107c-0.853-0.853-0.853-1.707-0.853-2.56c0-0.853,0.853-2.56,1.707-3.413c1.707-1.707,4.267-0.853,5.973,0.853 l33.28,40.107c4.267-2.56,9.387-3.413,14.507-3.413c16.213,0,29.867,13.653,29.867,29.867 C418.133,472.747,404.48,486.4,388.267,486.4z M375.467,439.467c-5.12,4.267-8.533,10.24-8.533,17.067 c0,11.947,9.387,21.333,21.333,21.333c11.947,0,21.333-9.387,21.333-21.333s-9.387-21.333-21.333-21.333 C383.147,435.2,378.88,436.907,375.467,439.467L375.467,439.467z M115.2,486.4c-16.213,0-29.867-13.653-29.867-29.867 s13.653-29.867,29.867-29.867c5.12,0,10.24,1.707,14.507,4.267l41.813-40.96c1.707-1.707,4.267-1.707,5.973,0 c0.853,0.853,0.853,1.707,0.853,2.56c0,0.853-0.853,2.56-1.707,3.413l-40.96,40.107c5.12,5.12,8.533,12.8,8.533,20.48 C145.067,472.747,131.413,486.4,115.2,486.4z M115.2,435.2c-11.947,0-21.333,9.387-21.333,21.333s9.387,21.333,21.333,21.333 s21.333-9.387,21.333-21.333S127.147,435.2,115.2,435.2z M328.533,366.933H157.867c-30.72,0-55.467-24.747-55.467-55.467 c0-23.04,14.507-43.52,35.84-52.053c-0.853-5.973-1.707-11.093-1.707-16.213c0-49.493,40.107-89.6,89.6-89.6 c30.72,0,58.88,15.36,75.093,40.96c1.707,1.707,0.853,4.267-0.853,5.973c-1.707,1.707-4.267,0.853-5.973-0.853 c-15.36-23.04-40.107-36.693-68.267-36.693c-44.373,0-81.067,36.693-81.067,81.067c0,5.973,0.853,11.947,2.56,17.92 c0.853,2.56-0.853,4.267-2.56,5.12c-19.627,5.973-33.28,23.893-33.28,45.227c0,25.6,21.333,46.933,46.933,46.933h170.667 c34.987,0,64-29.013,64-64s-29.013-64-64-64c-14.507,0-29.013,5.12-40.96,14.507c-1.707,1.707-4.267,0.853-5.973-0.853 s-0.853-4.267,0.853-5.973c12.8-11.093,29.013-16.213,46.08-16.213c40.107,0,72.533,32.427,72.533,72.533 C401.067,334.507,368.64,366.933,328.533,366.933z M111.787,235.52c-0.853,0-0.853,0-1.707,0l-53.76-21.333 C51.2,223.573,40.96,230.4,29.867,230.4C13.653,230.4,0,216.747,0,200.533s13.653-29.867,29.867-29.867s29.867,13.653,29.867,29.867 c0,1.707,0,4.267-0.853,5.973l53.76,21.333c1.707,0.853,2.56,2.56,2.56,4.267c0,0.853,0,0.853,0,1.707 C115.2,234.667,113.493,235.52,111.787,235.52z M29.867,179.2c-11.947,0-21.333,9.387-21.333,21.333 c0,11.947,9.387,21.333,21.333,21.333c9.387,0,17.067-5.973,20.48-13.653l0,0l0,0c0.853-2.56,0.853-4.267,0.853-6.827 C51.2,188.587,41.813,179.2,29.867,179.2z M405.333,230.4c-1.707,0-3.413-0.853-4.267-2.56c0-0.853,0-0.853,0-1.707 c0-1.707,0.853-3.413,2.56-4.267l40.96-15.36c0-1.707-0.853-4.267-0.853-5.973c0-16.213,13.653-29.867,29.867-29.867 c16.213,0,29.867,13.653,29.867,29.867S489.813,230.4,473.6,230.4c-11.093,0-21.333-6.827-26.453-16.213l-40.107,15.36 C406.187,230.4,406.187,230.4,405.333,230.4z M453.12,208.213c2.56,8.533,11.093,13.653,20.48,13.653 c11.947,0,21.333-9.387,21.333-21.333c0-11.947-9.387-21.333-21.333-21.333c-11.947,0-21.333,9.387-21.333,21.333 C452.267,203.093,452.267,205.653,453.12,208.213C453.12,207.36,453.12,207.36,453.12,208.213 C453.12,207.36,453.12,207.36,453.12,208.213z M251.733,133.12c-2.56,0-4.267-1.707-4.267-4.267V76.8 c-14.507-1.707-25.6-14.507-25.6-29.867c0-16.213,13.653-29.867,29.867-29.867S281.6,30.72,281.6,46.933 c0,15.36-11.093,27.307-25.6,29.867v52.053C256,131.413,254.293,133.12,251.733,133.12z M251.733,25.6 c-11.947,0-21.333,9.387-21.333,21.333s9.387,21.333,21.333,21.333c11.947,0,21.333-9.387,21.333-21.333S263.68,25.6,251.733,25.6z"/>
</svg>